<svg width="53" height="53" viewBox="0 0 53 53" fill="none" xmlns="http://www.w3.org/2000/svg">
<circle cx="26.5" cy="26.5" r="26" fill="white"/>
<path d="M34.5499 10.0117C31.5087 7.90706 26.698 8.78401 22.8826 12.2918C18.5696 16.2673 17.3531 22.2305 20.1178 25.5629C22.8826 28.8953 28.6333 28.3692 32.9463 24.3352C36.8723 20.7105 38.2547 15.3903 36.3747 11.9995V11.941C38.8076 15.975 37.2041 22.4059 32.4487 26.7907C27.3615 31.5262 20.5602 32.1693 17.2425 28.2522C13.98 24.2767 15.4177 17.2612 20.5602 12.5257C25.0944 8.25784 31.011 7.32243 34.5499 10.0117Z" fill="#2D499A"/>
<path d="M20.1584 25.7279C24.8107 20.9495 31.2351 19.8286 34.7243 23.3682C38.3242 27.0258 37.4381 34.282 32.7305 39.5324C28.5214 44.2518 22.6507 45.7856 18.8846 43.3669H18.94C22.0969 45.1957 26.9152 43.8389 30.4044 39.9453C34.392 35.5208 35.112 29.3855 32.0659 26.3179C29.5183 23.7812 24.9768 24.1351 21.543 26.7898C20.4354 26.1409 20.1584 25.7279 20.1584 25.7279Z" fill="#EC3336"/>
<path d="M18.6026 29.7231C15.6689 33.5992 14.9755 38.4587 16.949 41.4669V41.5248C14.7621 38.4008 15.0821 33.3678 17.6958 29.0289L18.6026 29.7231Z" fill="#EC3336"/>
</svg>
